<?xml version="1.0" standalone="no"?>
<!DOCTYPE svg PUBLIC "-//W3C//DTD SVG 20010904//EN"
 "http://www.w3.org/TR/2001/REC-SVG-20010904/DTD/svg10.dtd">
<svg version="1.0" xmlns="http://www.w3.org/2000/svg"
 width="23.5pt" height="26.875pt" viewBox="0 0 376.000000 430.000000"
 preserveAspectRatio="xMidYMid meet">

<g transform="translate(0.000000,430.000000) scale(0.100000,-0.100000)"
fill="currentColor" stroke="currentColor">
<path d="M985 4225 c-174 -32 -299 -97 -421 -219 -44 -45 -99 -113 -122 -151
-64 -109 -325 -685 -375 -830 -29 -83 -31 -100 -31 -220 0 -114 4 -140 27
-210 40 -120 81 -182 322 -484 225 -282 434 -543 674 -846 268 -338 385 -433
606 -490 l80 -21 -1 -97 c-2 -115 -14 -165 -67 -272 -40 -81 -77 -138 -154
-233 -46 -58 -55 -99 -27 -126 28 -29 77 -15 152 42 54 41 158 169 194 238 18
35 36 64 40 64 4 0 14 -15 22 -32 15 -36 113 -175 154 -220 40 -43 141 -108
168 -108 13 0 33 9 45 21 29 29 19 60 -47 140 -136 166 -201 319 -206 484 l-3
98 80 21 c98 27 174 61 257 117 104 70 172 145 432 476 23 28 71 89 108 135
742 929 764 959 802 1087 28 96 39 222 26 306 -20 130 -36 170 -328 805 -105
229 -272 405 -457 483 -136 57 -140 57 -1047 56 -635 -1 -850 -4 -903 -14z
m1778 -259 c93 -26 164 -64 227 -122 76 -71 108 -122 190 -306 37 -84 107
-238 154 -341 48 -104 96 -223 107 -264 34 -135 19 -268 -41 -365 -15 -26
-161 -212 -322 -415 -162 -202 -330 -413 -373 -468 -44 -55 -89 -112 -100
-126 -175 -236 -321 -401 -402 -455 -164 -109 -390 -123 -584 -36 -94 43 -175
123 -368 367 -182 231 -571 720 -747 940 -126 158 -166 221 -188 296 -22 72
-20 189 3 274 19 67 306 706 355 789 55 94 192 195 306 226 82 23 190 25 960
24 673 -1 772 -4 823 -18z"/>
<path d="M843 3068 c-35 -40 -48 -89 -48 -183 1 -143 45 -249 153 -366 70 -76
154 -125 234 -135 41 -6 49 -3 71 18 70 70 60 244 -24 414 -91 184 -315 331
-386 252z"/>
<path d="M2767 3060 c-106 -53 -187 -141 -247 -265 -76 -158 -81 -325 -13
-392 21 -22 30 -24 66 -19 169 26 340 210 382 411 18 84 18 118 4 185 -24 110
-84 135 -192 80z"/>
</g>
</svg>